<?xml version="1.0" encoding="UTF-8"?>
<svg version="1.1" xmlns="http://www.w3.org/2000/svg" width="500" height="500">
<path d="M0 0 C165 0 330 0 500 0 C500 165 500 330 500 500 C335 500 170 500 0 500 C0 335 0 170 0 0 Z " fill="#FEFEFE" transform="translate(0,0)"/>
<path d="M0 0 C20.10172049 -1.94460399 20.10172049 -1.94460399 26.0390625 2.0390625 C27.87716364 4.61524286 29.41043151 7.21401358 30.86376953 10.02246094 C33.14028933 13.98460327 36.14672881 17.4438571 39 21 C40.22032026 22.5576498 41.43782683 24.11750854 42.65234375 25.6796875 C43.22968262 26.42186523 43.80702148 27.16404297 44.40185547 27.92871094 C46.49059221 30.63583628 48.52895799 33.37616052 50.5625 36.125 C54.09952076 40.88282084 57.80489765 45.47908034 61.5625 50.0625 C65.90542124 55.36146105 70.07408852 60.72518684 74.0546875 66.3046875 C80.07861503 74.65109311 86.53160617 82.69336202 92.90039062 90.77758789 C100.17449093 100.01941905 100.17449093 100.01941905 102.99755859 103.86376953 C105.38248283 107.07420814 107.88354238 109.92142751 110.73828125 112.7265625 C119.38328328 121.69711759 122.10015087 129.14777697 121.93328857 141.47564697 C121.78356227 146.99670655 121.47759143 152.49667717 121 158 C117.45172254 154.50359471 114.31910406 150.97567479 111.3125 147 C110.43236265 145.84239394 109.55215228 144.6848434 108.671875 143.52734375 C108.22779297 142.94065918 107.78371094 142.35397461 107.32617188 141.74951172 C105.25043373 139.0111576 103.1573014 136.28628333 101.0625 133.5625 C100.65153076 133.02729736 100.24056152 132.49209473 99.81713867 131.94067383 C97.23284686 128.58134514 94.62150796 125.2447655 91.99365234 121.91943359 C87.03509278 115.64472407 82.19137228 109.29484587 77.40625 102.88696289 C69.79936799 92.70391299 61.98200676 82.68452253 54.17456055 72.6550293 C49.09095554 66.12271782 44.03464808 59.57014192 39 53 C38.49082031 52.33613281 37.98164063 51.67226562 37.45703125 50.98828125 C35.78302891 48.80531858 34.11010348 46.62153463 32.4375 44.4375 C31.9314624 43.77741943 31.4254248 43.11733887 30.90405273 42.43725586 C27.67521376 38.21698488 24.4755977 33.97536277 21.28930664 29.72290039 C20.87525826 29.17055977 20.46120987 28.61821915 20.03461456 28.04914093 C19.02294128 26.69952854 18.01145173 25.34977844 17 24 C16.92974722 38.56062564 16.87693245 53.12122867 16.84456348 67.68198967 C16.82913083 74.4436499 16.80811078 81.20520448 16.77368164 87.96679688 C16.74045139 94.49608078 16.72312988 101.02529631 16.71536827 107.5546608 C16.70983923 110.04164478 16.69904244 112.52862299 16.68280983 115.01556015 C16.66092914 118.50773678 16.65803758 121.99946471 16.65942383 125.49169922 C16.648638 126.51237991 16.63785217 127.53306061 16.6267395 128.58467102 C16.65957062 136.2634257 17.50410482 144.15380146 22.3125 150.4375 C25.06131518 153.05846331 27.51126061 154.53959746 31 156 C31 156.99 31 157.98 31 159 C21.76 159 12.52 159 3 159 C4 155 4 155 6.4375 153.1875 C9.64983188 150.44526546 10.3273087 148.0304787 11 144 C11.28935563 139.86519707 11.2937718 135.74186051 11.29052734 131.59814453 C11.29724457 130.36312195 11.30396179 129.12809937 11.31088257 127.85565186 C11.32657958 124.48359315 11.33323484 121.11178083 11.33451414 117.7397027 C11.33594021 115.62879423 11.34021838 113.51791124 11.34550858 111.40700912 C11.36398408 104.03092572 11.37218218 96.65491437 11.37060547 89.27880859 C11.36940427 82.42193268 11.39050854 75.56537163 11.4220928 68.70857537 C11.44830884 62.80514276 11.45897056 56.90181268 11.45769465 50.99832237 C11.45718664 47.47966598 11.46278007 43.96128978 11.48405075 40.4426918 C11.50714762 36.51521936 11.49787964 32.58817366 11.48583984 28.66064453 C11.49707886 27.5071048 11.50831787 26.35356506 11.51989746 25.16506958 C11.46812354 18.50419663 10.87503807 12.61533559 7 7 C4.71909055 5.19353626 2.69138863 4.1904219 0 3 C0 2.01 0 1.02 0 0 Z " fill="#19225F" transform="translate(100,127)"/>
<path d="M0 0 C32.01 0 64.02 0 97 0 C97.80443697 3.21774789 98.17725163 5.72418116 98.31640625 8.984375 C98.35830078 9.91894531 98.40019531 10.85351562 98.44335938 11.81640625 C98.48267578 12.78449219 98.52199219 13.75257813 98.5625 14.75 C98.60568359 15.73355469 98.64886719 16.71710938 98.69335938 17.73046875 C98.79922052 20.15351275 98.90130171 22.5766554 99 25 C97.68 25 96.36 25 95 25 C93.54296875 23.0234375 93.54296875 23.0234375 92.1875 20.375 C87.97678496 12.93256116 83.5145163 9.02733062 75.30859375 6.54296875 C69.43281266 5.16101685 63.63231196 4.72972171 57.625 4.4375 C56.79355469 4.39431641 55.96210938 4.35113281 55.10546875 4.30664062 C53.07046772 4.20138195 51.03525297 4.10026928 49 4 C49.06056251 22.39371009 49.13808221 40.78726715 49.23571491 59.1808176 C49.28065476 67.72152535 49.32007359 76.26219156 49.34643555 84.80297852 C49.36943031 92.24829799 49.40284483 99.69348585 49.44870156 107.1387009 C49.47261391 111.07984323 49.49135568 115.02085537 49.49761391 118.96206856 C49.50367382 122.67461162 49.52370603 126.38682163 49.55427551 130.09924126 C49.56720879 132.10530596 49.56548828 134.11144853 49.5632782 136.11755371 C49.62917158 142.44736762 49.70902081 147.49477609 53 153 C55.58443323 154.73490246 55.58443323 154.73490246 58 156 C58 156.99 58 157.98 58 159 C45.79 159 33.58 159 21 159 C22 155 22 155 24.4375 152.75 C30.46031813 146.28648786 29.30462324 136.7314862 29.31884766 128.42382812 C29.32815973 127.06305352 29.33833028 125.70228456 29.34928894 124.34152222 C29.37645905 120.66857129 29.39169953 116.99565843 29.40471697 113.32263374 C29.42040471 109.47623481 29.44717678 105.62991297 29.4727478 101.78356934 C29.51943606 94.50942521 29.55622816 87.23526642 29.58942068 79.96104956 C29.62771262 71.67560509 29.67710414 63.39023826 29.72740483 55.10485935 C29.83057655 38.06996248 29.9198847 21.03502059 30 4 C26.68727224 4.14091893 23.37488029 4.28865394 20.0625 4.4375 C19.13630859 4.47681641 18.21011719 4.51613281 17.25585938 4.55664062 C11.46486581 4.82079121 5.75460497 5.29764309 0 6 C0 4.02 0 2.04 0 0 Z " fill="#172060" transform="translate(285,210)"/>
<path d="M0 0 C2.13767044 3.20650566 2.67962995 5.56319599 3.4375 9.2578125 C3.623125 9.83273438 3.80875 10.40765625 4 11 C4.66 11.33 5.32 11.66 6 12 C5.99723462 12.57830755 5.99446924 13.1566151 5.99162006 13.75244713 C5.92520997 27.85931184 5.87564659 41.96615296 5.84456348 56.0731411 C5.82913029 62.89533497 5.80810917 69.71742414 5.77368164 76.53955078 C5.74045344 83.12719097 5.7231303 89.71475125 5.71536827 96.30247879 C5.70983889 98.81179131 5.69904142 101.32109811 5.68280983 103.83036423 C5.66093174 107.35367274 5.65803748 110.87653648 5.65942383 114.39990234 C5.648638 115.42993378 5.63785217 116.45996521 5.6267395 117.52120972 C5.65938887 125.22406889 6.48845935 133.131941 11.3125 139.4375 C14.06131518 142.05846331 16.51126061 143.53959746 20 145 C20 145.99 20 146.98 20 148 C10.76 148 1.52 148 -8 148 C-7 144 -7 144 -4.5625 142.1875 C-1.34215792 139.43842749 -0.65729096 137.0451265 0 133 C0.27391562 128.66385112 0.25268277 124.33982983 0.22705078 119.99633789 C0.22734283 118.69809082 0.22763489 117.39984375 0.22793579 116.06225586 C0.22850739 112.51933887 0.21678447 108.97655851 0.20278788 105.43367314 C0.19024825 101.72478642 0.18910748 98.01589623 0.18673706 94.30699158 C0.18053176 87.29129151 0.16413387 80.2756541 0.14403808 73.25998157 C0.12164944 65.26965362 0.1106782 57.2793226 0.10064721 49.28897107 C0.07976675 32.85927742 0.04460934 16.42964672 0 0 Z " fill="#2C3366" transform="translate(111,138)"/>
<path d="M0 0 C32.01 0 64.02 0 97 0 C97.80443697 3.21774789 98.17725163 5.72418116 98.31640625 8.984375 C98.35830078 9.91894531 98.40019531 10.85351562 98.44335938 11.81640625 C98.48267578 12.78449219 98.52199219 13.75257813 98.5625 14.75 C98.60568359 15.73355469 98.64886719 16.71710938 98.69335938 17.73046875 C98.79922052 20.15351275 98.90130171 22.5766554 99 25 C97.68 25 96.36 25 95 25 C93.54296875 23.0234375 93.54296875 23.0234375 92.1875 20.375 C87.97678496 12.93256116 83.5145163 9.02733062 75.30859375 6.54296875 C66.41605685 4.45149222 58.46529645 4.5258498 49 4 C49 49.54 49 95.08 49 142 C48.67 142 48.34 142 48 142 C48 96.13 48 50.26 48 3 C32.49 2.34 16.98 1.68 1 1 C1 2.65 1 4.3 1 6 C0.67 6 0.34 6 0 6 C0 4.02 0 2.04 0 0 Z " fill="#494F81" transform="translate(285,210)"/>
<path d="M0 0 C2.9375 2.125 2.9375 2.125 5 5 C5.57167363 9.00171543 5.36938628 11.22764686 3.625 14.875 C2 17 2 17 0 18 C-4.79640449 18.58492738 -8.68336661 19.00314925 -12.625 16 C-14.37548753 12.18075447 -14.99182746 9.12566885 -14 5 C-9.52139324 -0.53932942 -6.92988354 -1.64437915 0 0 Z " fill="#F5F6F8" transform="translate(261,269)"/>
<path d="M0 0 C6.27 0 12.54 0 19 0 C19 10.33333333 19 10.33333333 16 14 C12.23124125 16.51250583 10.46849866 16.53016086 6 16 C1.57697689 13.66786054 1.57697689 13.66786054 0 11 C-0.50857356 7.18837497 -0.28000641 3.87342198 0 0 Z " fill="#F2F3F5" transform="translate(247,295)"/>
<path d="M0 0 C0.33 0 0.66 0 1 0 C1.17015625 1.08539063 1.3403125 2.17078125 1.515625 3.2890625 C1.75966039 4.73450289 2.00449462 6.17980856 2.25 7.625 C2.35957031 8.33785156 2.46914062 9.05070312 2.58203125 9.78515625 C3.57473612 15.48014732 5.29690004 20.01213635 10.140625 23.57421875 C11.18476562 24.12529297 11.18476562 24.12529297 12.25 24.6875 C14.390625 25.82421875 14.390625 25.82421875 16 27 C16 27.99 16 28.98 16 30 C6.76 30 -2.48 30 -12 30 C-11 26 -11 26 -8.5625 24.1875 C-5.31980612 21.41934669 -4.86682296 19.09770855 -4 15 C-2.33333333 15 -0.66666667 15 1 15 C0.84402344 14.41992188 0.68804687 13.83984375 0.52734375 13.2421875 C-0.66056198 8.47483073 -1.24917875 4.87179712 0 0 Z " fill="#1A235F" transform="translate(115,256)"/>
<path d="M0 0 C4.07507572 -0.04946866 8.15003497 -0.08575189 12.2253418 -0.10986328 C13.61144048 -0.1199157 14.99751799 -0.1335597 16.38354492 -0.15087891 C18.3766975 -0.17515952 20.37000533 -0.18542031 22.36328125 -0.1953125 C24.16212769 -0.21102295 24.16212769 -0.21102295 25.99731445 -0.22705078 C29 0 29 0 32 2 C32.29296875 4.1640625 32.29296875 4.1640625 32.1875 6.625 C32.14689453 7.85089844 32.14689453 7.85089844 32.10546875 9.1015625 C32.07066406 9.72804687 32.03585937 10.35453125 32 11 C31.34 11 30.68 11 30 11 C30.00699732 11.66814161 30.01399464 12.33628323 30.02120399 13.02467155 C30.19059443 29.26503696 30.34889409 45.50546846 30.49477577 61.74606133 C30.56559122 69.5998148 30.64019144 77.45349859 30.72363281 85.30712891 C30.79633154 92.15054124 30.86199921 98.99397829 30.91914403 105.83753884 C30.94966317 109.46279275 30.98375688 113.0879351 31.02626419 116.71306992 C31.07352861 120.75511929 31.10509796 124.79714228 31.13525391 128.83935547 C31.16006584 130.65196365 31.16006584 130.65196365 31.18537903 132.50119019 C31.19104385 133.59777954 31.19670868 134.6943689 31.20254517 135.82418823 C31.21637206 137.25941991 31.21637206 137.25941991 31.23047829 138.72364616 C31 141 31 141 29 143 C29 96.8 29 50.6 29 3 C14.46807141 3.62951909 14.46807141 3.62951909 0 5 C0 3.35 0 1.7 0 0 Z " fill="#1A1F51" transform="translate(286,211)"/>
<path d="M0 0 C2.78637633 4.1795645 1.79562512 6.14668677 1 11 C-0.65 11.33 -2.3 11.66 -4 12 C-4 12.66 -4 13.32 -4 14 C-2.35 14 -0.7 14 1 14 C0.67 14.99 0.34 15.98 0 17 C-1.0209375 16.4740625 -1.0209375 16.4740625 -2.0625 15.9375 C-5.77145334 14.75379149 -8.20017393 15.26670023 -12 16 C-13.134375 16.185625 -14.26875 16.37125 -15.4375 16.5625 C-16.283125 16.706875 -17.12875 16.85125 -18 17 C-18 16.34 -18 15.68 -18 15 C-16.35 14.67 -14.7 14.34 -13 14 C-13.66868314 10.88667752 -13.66868314 10.88667752 -16.0625 9.8125 C-16.701875 9.544375 -17.34125 9.27625 -18 9 C-18 8.34 -18 7.68 -18 7 C-9.09 3.535 -9.09 3.535 0 0 Z " fill="#EBEFF3" transform="translate(265,190)"/>
<path d="M0 0 C4.95 0 9.9 0 15 0 C15 6.93 15 13.86 15 21 C13 17 13 17 12.140625 15 C9.9543638 10.09050117 7.88907083 7.60056959 3 5 C2.01 4.67 1.02 4.34 0 4 C0 2.68 0 1.36 0 0 Z " fill="#1D2356" transform="translate(206,127)"/>
<path d="M0 0 C6.27 0 12.54 0 19 0 C19 4.29 19 8.58 19 13 C18.01 12.67 17.02 12.34 16 12 C16.33 11.67 16.66 11.34 17 11 C17.36760731 8.67182036 17.70241581 6.3381615 18 4 C15.69 4 13.38 4 11 4 C11.33 6.64 11.66 9.28 12 12 C10.68 12 9.36 12 8 12 C8.66 9.36 9.32 6.72 10 4 C7.03 4 4.06 4 1 4 C1.12375 5.27875 1.2475 6.5575 1.375 7.875 C1.44460937 8.59429687 1.51421875 9.31359375 1.5859375 10.0546875 C1.86374749 12.22668245 1.86374749 12.22668245 4 14 C2.68 14 1.36 14 0 14 C0 9.38 0 4.76 0 0 Z " fill="#494A66" transform="translate(247,171)"/>
<path d="M0 0 C1.12019531 0.42152344 2.24039063 0.84304688 3.39453125 1.27734375 C4.86717658 1.83075824 6.33983343 2.38414205 7.8125 2.9375 C8.55048828 3.21529297 9.28847656 3.49308594 10.04882812 3.77929688 C11.11713867 4.18051758 11.11713867 4.18051758 12.20703125 4.58984375 C12.8616333 4.83597412 13.51623535 5.08210449 14.19067383 5.33569336 C15.78311815 5.92037033 17.39066676 6.46355559 19 7 C19 7.66 19 8.32 19 9 C9.595 12.96 9.595 12.96 0 17 C0 16.01 0 15.02 0 14 C2.31 13.34 4.62 12.68 7 12 C7 9.36 7 6.72 7 4 C4.69 3.34 2.38 2.68 0 2 C0 1.34 0 0.68 0 0 Z " fill="#C7C8D3" transform="translate(247,317)"/>
<path d="M0 0 C0.66 0.99 1.32 1.98 2 3 C1.01 3 0.02 3 -1 3 C-1 3.66 -1 4.32 -1 5 C3.21752518 5.02473064 7.43501186 5.04287453 11.65258789 5.05493164 C13.08716568 5.05995842 14.52173836 5.06678079 15.95629883 5.07543945 C18.01905582 5.08757752 20.08174504 5.09324486 22.14453125 5.09765625 C24.00621948 5.10551147 24.00621948 5.10551147 25.90551758 5.11352539 C29.03708218 5.14388083 29.03708218 5.14388083 32 4 C32 4.99 32 5.98 32 7 C19.79 7 7.58 7 -5 7 C-3.92643531 2.70574125 -3.4915227 2.25259529 0 0 Z " fill="#1B214D" transform="translate(311,362)"/>
<path d="M0 0 C7.59 0 15.18 0 23 0 C23 0.33 23 0.66 23 1 C18.38 1.33 13.76 1.66 9 2 C9.99 4.97 10.98 7.94 12 11 C11.34 11.66 10.68 12.32 10 13 C9.649375 12.0925 9.29875 11.185 8.9375 10.25 C6.45238781 6.08142471 4.29804263 5.10847374 0 3 C0 2.01 0 1.02 0 0 Z " fill="#3E446D" transform="translate(100,127)"/>
<path d="M0 0 C0.99 0 1.98 0 3 0 C3.33 6.93 3.66 13.86 4 21 C2.68 21 1.36 21 0 21 C-0.99 18.69 -1.98 16.38 -3 14 C-1.68 14 -0.36 14 1 14 C0.67 9.38 0.34 4.76 0 0 Z " fill="#333965" transform="translate(380,214)"/>
<path d="M0 0 C6.27 0 12.54 0 19 0 C19 2.97 19 5.94 19 9 C18.67 9 18.34 9 18 9 C18 7.02 18 5.04 18 3 C12.06 3 6.12 3 0 3 C0 2.01 0 1.02 0 0 Z " fill="#575977" transform="translate(247,295)"/>
<path d="M0 0 C0.99 0 1.98 0 3 0 C3 4.62 3 9.24 3 14 C2.34 13.67 1.68 13.34 1 13 C1.33 11.68 1.66 10.36 2 9 C-3.94 9 -9.88 9 -16 9 C-15.67 7.68 -15.34 6.36 -15 5 C-9.39 5.33 -3.78 5.66 2 6 C1.34 4.02 0.68 2.04 0 0 Z " fill="#47496B" transform="translate(263,248)"/>
<path d="M0 0 C0.99 0.33 1.98 0.66 3 1 C2.34 1.66 1.68 2.32 1 3 C0.83318891 6.08347826 0.83318891 6.08347826 1 9 C3.41585574 8.96906827 3.41585574 8.96906827 6 8 C7.74170298 5.0999475 7.74170298 5.0999475 9 2 C9.66 1.34 10.32 0.68 11 0 C14.125 0.375 14.125 0.375 17 1 C16.67 1.66 16.34 2.32 16 3 C14.68 3 13.36 3 12 3 C10.35 5.97 8.7 8.94 7 12 C4.125 12.125 4.125 12.125 1 12 C-1 10 -1 10 -1.23046875 8.125 C-1.21628906 7.42375 -1.20210937 6.7225 -1.1875 6 C-1.18105469 5.29875 -1.17460937 4.5975 -1.16796875 3.875 C-1 2 -1 2 0 0 Z " fill="#4D4F6A" transform="translate(248,220)"/>
<path d="M0 0 C1.32 0.99 2.64 1.98 4 3 C2.35 5.64 0.7 8.28 -1 11 C-2.65 10.67 -4.3 10.34 -6 10 C-6 8.02 -6 6.04 -6 4 C-5.38125 3.71125 -4.7625 3.4225 -4.125 3.125 C-1.86674235 2.06279958 -1.86674235 2.06279958 0 0 Z " fill="#F4F5F9" transform="translate(254,219)"/>
<path d="M0 0 C-0.0625 2.25 -0.0625 2.25 -1 5 C-3.13944699 6.81289982 -5.36581789 8.04525277 -8 9 C-10.4375 8.75 -10.4375 8.75 -12 8 C-12 6.68 -12 5.36 -12 4 C-10.3767313 3.3291288 -8.75132422 2.66342971 -7.125 2 C-6.22007812 1.62875 -5.31515625 1.2575 -4.3828125 0.875 C-2 0 -2 0 0 0 Z " fill="#F0F3F6" transform="translate(264,327)"/>
<path d="M0 0 C0 0.99 0 1.98 0 3 C-1.65 3.33 -3.3 3.66 -5 4 C-5 4.66 -5 5.32 -5 6 C-3.35 6 -1.7 6 0 6 C-0.33 6.99 -0.66 7.98 -1 9 C-1.680625 8.649375 -2.36125 8.29875 -3.0625 7.9375 C-6.77145334 6.75379149 -9.20017393 7.26670023 -13 8 C-14.7015625 8.2784375 -14.7015625 8.2784375 -16.4375 8.5625 C-17.283125 8.706875 -18.12875 8.85125 -19 9 C-19 8.34 -19 7.68 -19 7 C-17.66195312 6.49339844 -17.66195312 6.49339844 -16.296875 5.9765625 C-15.12640625 5.53054687 -13.9559375 5.08453125 -12.75 4.625 C-11.00976562 3.96371094 -11.00976562 3.96371094 -9.234375 3.2890625 C-6.11894681 2.10343958 -6.11894681 2.10343958 -3.703125 0.8359375 C-2 0 -2 0 0 0 Z " fill="#666481" transform="translate(266,198)"/>
<path d="M0 0 C1.72265625 1.546875 1.72265625 1.546875 3 3 C1.98679687 2.96519531 1.98679687 2.96519531 0.953125 2.9296875 C0.06109375 2.91164063 -0.8309375 2.89359375 -1.75 2.875 C-2.63171875 2.85179687 -3.5134375 2.82859375 -4.421875 2.8046875 C-7.19977368 3.01513437 -8.73513742 3.38224102 -11 5 C-11.90609992 6.93981618 -11.90609992 6.93981618 -12.25 9.125 C-12.4975 10.40375 -12.745 11.6825 -13 13 C-13.33 13 -13.66 13 -14 13 C-14.61364554 5.75898264 -14.61364554 5.75898264 -11.625 2.0625 C-7.31206332 -1.32623596 -5.3859227 -1.13387846 0 0 Z " fill="#454A61" transform="translate(261,269)"/>
<path d="M0 0 C0 0.99 0 1.98 0 3 C-6.29718136 7.12206799 -11.46828078 8.82703776 -19 9 C-18.67 7.68 -18.34 6.36 -18 5 C-16.845 5.103125 -15.69 5.20625 -14.5 5.3125 C-9.94216741 5.35305011 -7.29750412 3.69940535 -3.6640625 1.09375 C-2 0 -2 0 0 0 Z " fill="#333553" transform="translate(266,339)"/>
<path d="M0 0 C2.97 0.495 2.97 0.495 6 1 C6 3.64 6 6.28 6 9 C4.68 9.33 3.36 9.66 2 10 C2 9.01 2 8.02 2 7 C1.67 6.01 1.34 5.02 1 4 C0.01 3.67 -0.98 3.34 -2 3 C-1.34 2.01 -0.68 1.02 0 0 Z " fill="#CED1D7" transform="translate(260,222)"/>
<path d="M0 0 C5.94 0 11.88 0 18 0 C18 3.3 18 6.6 18 10 C17.01 9.67 16.02 9.34 15 9 C15.33 8.67 15.66 8.34 16 8 C16.36760731 5.67182036 16.70241581 3.3381615 17 1 C14.69 1 12.38 1 10 1 C10.33 3.64 10.66 6.28 11 9 C9.68 9 8.36 9 7 9 C7.66 6.36 8.32 3.72 9 1 C6.03 1 3.06 1 0 1 C0 0.67 0 0.34 0 0 Z " fill="#8F91A4" transform="translate(248,174)"/>
<path d="M0 0 C0 0.66 0 1.32 0 2 C-9.405 5.96 -9.405 5.96 -19 10 C-19 9.01 -19 8.02 -19 7 C-16.39869373 5.8265684 -13.79431492 4.66107492 -11.1875 3.5 C-10.44951172 3.16613281 -9.71152344 2.83226562 -8.95117188 2.48828125 C-8.23896484 2.17246094 -7.52675781 1.85664063 -6.79296875 1.53125 C-6.1383667 1.23798828 -5.48376465 0.94472656 -4.80932617 0.64257812 C-3 0 -3 0 0 0 Z " fill="#353654" transform="translate(266,324)"/>
<path d="M0 0 C0.33 0 0.66 0 1 0 C1.29363808 4.99184736 1.07836372 7.97444744 -2 12 C-4.46816414 13.23408207 -6.24661201 13.20197579 -9 13.25 C-9.886875 13.27578125 -10.77375 13.3015625 -11.6875 13.328125 C-12.450625 13.21984375 -13.21375 13.1115625 -14 13 C-14.66 12.01 -15.32 11.02 -16 10 C-14.98679688 10.03480469 -14.98679688 10.03480469 -13.953125 10.0703125 C-13.06109375 10.08835937 -12.1690625 10.10640625 -11.25 10.125 C-10.36828125 10.14820313 -9.4865625 10.17140625 -8.578125 10.1953125 C-5.80022632 9.98486563 -4.26486258 9.61775898 -2 8 C-1.09390008 6.06018382 -1.09390008 6.06018382 -0.75 3.875 C-0.37875 1.956875 -0.37875 1.956875 0 0 Z " fill="#464A63" transform="translate(265,274)"/>
<path d="M0 0 C0 3 0 3 -1.23754883 4.36621094 C-3.08799563 5.83858121 -4.93919685 7.30672605 -6.8125 8.75 C-7.45509766 9.26949219 -8.09769531 9.78898438 -8.75976562 10.32421875 C-9.38173828 10.81019531 -10.00371094 11.29617187 -10.64453125 11.796875 C-11.21534424 12.24385742 -11.78615723 12.69083984 -12.37426758 13.15136719 C-12.91075928 13.43141602 -13.44725098 13.71146484 -14 14 C-14.99 13.67 -15.98 13.34 -17 13 C-15.10775143 11.39143782 -13.21143975 9.78813034 -11.3125 8.1875 C-10.51682617 7.50977539 -10.51682617 7.50977539 -9.70507812 6.81835938 C-6.61476694 4.22098126 -3.52501051 1.96851236 0 0 Z " fill="#2E3052" transform="translate(265,149)"/>
<path d="M0 0 C0.33 0.99 0.66 1.98 1 3 C-1.60197202 4.00605593 -4.20629362 5.00502525 -6.8125 6 C-7.91948242 6.42925781 -7.91948242 6.42925781 -9.04882812 6.8671875 C-9.76103516 7.13789063 -10.47324219 7.40859375 -11.20703125 7.6875 C-11.8616333 7.93886719 -12.51623535 8.19023437 -13.19067383 8.44921875 C-15 9 -15 9 -18 9 C-18 8.34 -18 7.68 -18 7 C-9.09 3.535 -9.09 3.535 0 0 Z " fill="#3A3A61" transform="translate(265,190)"/>
<path d="M0 0 C0 0.66 0 1.32 0 2 C1.32 2.33 2.64 2.66 4 3 C3.01 3.495 3.01 3.495 2 4 C2.66 4.66 3.32 5.32 4 6 C3.67 6.99 3.34 7.98 3 9 C2.236875 8.505 1.47375 8.01 0.6875 7.5 C-1.92363751 5.75631692 -1.92363751 5.75631692 -5 6 C-5.33 5.01 -5.66 4.02 -6 3 C-2.25 0 -2.25 0 0 0 Z " fill="#D5D6DE" transform="translate(262,344)"/>
<path d="M0 0 C2.31 0.33 4.62 0.66 7 1 C7.103125 1.639375 7.20625 2.27875 7.3125 2.9375 C7.539375 3.618125 7.76625 4.29875 8 5 C8.99 5.33 9.98 5.66 11 6 C11 6.66 11 7.32 11 8 C8.70703125 8.25 8.70703125 8.25 6 8 C4.19921875 6.25 4.19921875 6.25 2.6875 4 C1.91986328 2.88625 1.91986328 2.88625 1.13671875 1.75 C0.57404297 0.88375 0.57404297 0.88375 0 0 Z " fill="#23285E" transform="translate(370,220)"/>
<path d="M0 0 C1.89492188 0.01353516 1.89492188 0.01353516 3.828125 0.02734375 C4.79234375 0.03894531 5.7565625 0.05054688 6.75 0.0625 C6.75 1.0525 6.75 2.0425 6.75 3.0625 C0.48 3.0625 -5.79 3.0625 -12.25 3.0625 C-11.25 1.0625 -11.25 1.0625 -9.640625 0.44140625 C-6.40648557 -0.07119428 -3.27272949 -0.03030305 0 0 Z " fill="#B0ADC3" transform="translate(259.25,160.9375)"/>
<path d="M0 0 C0.33 0.99 0.66 1.98 1 3 C-1.89315314 5.80548184 -3.5181825 6.93237649 -7.5625 7.5 C-11.47145142 6.93142525 -12.61088804 6.0580633 -15 3 C-14.40832031 3.10699219 -13.81664062 3.21398437 -13.20703125 3.32421875 C-7.980582 4.14460281 -7.980582 4.14460281 -3 2.625 C-1.12076359 1.1550633 -1.12076359 1.1550633 0 0 Z " fill="#393857" transform="translate(264,304)"/>
<path d="M0 0 C4.20240011 3.71750779 6.99782679 8.31660979 10 13 C7 13 7 13 4 11 C4 9.68 4 8.36 4 7 C3.01 6.67 2.02 6.34 1 6 C0.67 4.02 0.34 2.04 0 0 Z " fill="#292E5C" transform="translate(136,145)"/>
<path d="M0 0 C0.33 0 0.66 0 1 0 C1.17015625 0.60328125 1.3403125 1.2065625 1.515625 1.828125 C2.96189671 6.59774447 4.13127043 9.66488831 8 13 C8 13.66 8 14.32 8 15 C5.5625 14.25 5.5625 14.25 3 13 C2.1875 10.875 2.1875 10.875 2 9 C1.34 9 0.68 9 0 9 C0 6.03 0 3.06 0 0 Z " fill="#292E5D" transform="translate(117,267)"/>
<path d="M0 0 C2.97 0.495 2.97 0.495 6 1 C5.01 1.495 5.01 1.495 4 2 C4 2.66 4 3.32 4 4 C-7.385 3.505 -7.385 3.505 -19 3 C-19 2.67 -19 2.34 -19 2 C-12.73 2 -6.46 2 0 2 C0 1.34 0 0.68 0 0 Z " fill="#212857" transform="translate(352,211)"/>
<path d="M0 0 C1.98 0 3.96 0 6 0 C6 2.97 6 5.94 6 9 C0.42857143 3.85714286 0.42857143 3.85714286 0 0 Z " fill="#15205E" transform="translate(214,129)"/>
<path d="M0 0 C4.95 0 9.9 0 15 0 C15 0.33 15 0.66 15 1 C11.04 1 7.08 1 3 1 C3 1.66 3 2.32 3 3 C4.32 3.33 5.64 3.66 7 4 C6.34 4.66 5.68 5.32 5 6 C2.525 5.01 2.525 5.01 0 4 C0 2.68 0 1.36 0 0 Z " fill="#505273" transform="translate(206,127)"/>
<path d="M0 0 C0.66 0 1.32 0 2 0 C2 0.99 2 1.98 2 3 C-5.59 3 -13.18 3 -21 3 C-17.10485894 0.40323929 -13.87508593 0.81497291 -9.375 0.9375 C-6.57903582 0.99917568 -3.79758916 1.02061381 -1 1 C-0.67 0.67 -0.34 0.34 0 0 Z " fill="#1C1F49" transform="translate(129,283)"/>
<path d="M0 0 C0 3.10551666 -0.5393715 4.35261084 -2 7 C-2.66 7 -3.32 7 -4 7 C-4.33 7.66 -4.66 8.32 -5 9 C-5.99 9 -6.98 9 -8 9 C-9.33981486 9.3062434 -10.67511887 9.63451555 -12 10 C-8.40945767 6.11024581 -4.26101118 3.10267805 0 0 Z " fill="#E7EAF4" transform="translate(265,151)"/>
<path d="M0 0 C5.94 0 11.88 0 18 0 C16.68 0.99 15.36 1.98 14 3 C13.34 2.67 12.68 2.34 12 2 C5.91483944 1.76666713 5.91483944 1.76666713 0 3 C0 2.01 0 1.02 0 0 Z " fill="#AEAFBF" transform="translate(247,149)"/>
<path d="M0 0 C0 0.66 0 1.32 0 2 C-1.41225926 2.67595315 -2.83002905 3.34040059 -4.25 4 C-5.43335938 4.556875 -5.43335938 4.556875 -6.640625 5.125 C-9 6 -9 6 -13 6 C-13 5.34 -13 4.68 -13 4 C-11.2097939 3.32942113 -9.41778511 2.6636531 -7.625 2 C-6.62726563 1.62875 -5.62953125 1.2575 -4.6015625 0.875 C-2 0 -2 0 0 0 Z " fill="#35355D" transform="translate(260,201)"/>
<path d="M0 0 C3.28788824 3.11016455 5.83735988 6.01618925 8 10 C5 10 5 10 2.875 8.9375 C0.22331874 6.19742936 0.28005608 3.710743 0 0 Z " fill="#2E3562" transform="translate(162,179)"/>
<path d="M0 0 C0.66 0 1.32 0 2 0 C2 0.99 2 1.98 2 3 C-4.93 3 -11.86 3 -19 3 C-19 2.67 -19 2.34 -19 2 C-17.71222656 1.93941406 -16.42445313 1.87882812 -15.09765625 1.81640625 C-13.41925841 1.73201753 -11.74087364 1.6473687 -10.0625 1.5625 C-8.78729492 1.50352539 -8.78729492 1.50352539 -7.48632812 1.44335938 C-6.67744141 1.40146484 -5.86855469 1.35957031 -5.03515625 1.31640625 C-3.91185913 1.26141968 -3.91185913 1.26141968 -2.76586914 1.20532227 C-0.97538674 1.18228937 -0.97538674 1.18228937 0 0 Z " fill="#2A2E4B" transform="translate(341,366)"/>
<path d="M0 0 C0.90105469 0.00902344 1.80210937 0.01804688 2.73046875 0.02734375 C3.41753906 0.03894531 4.10460937 0.05054688 4.8125 0.0625 C4.4825 0.7225 4.1525 1.3825 3.8125 2.0625 C0.07129194 2.66592066 -3.40430921 3.0625 -7.1875 3.0625 C-7.5175 2.4025 -7.8475 1.7425 -8.1875 1.0625 C-5.17259443 0.05753148 -3.14568308 -0.04085303 0 0 Z " fill="#21265C" transform="translate(299.1875,210.9375)"/>
<path d="M0 0 C6.0546875 -0.1953125 6.0546875 -0.1953125 8 0 C8.66 0.66 9.32 1.32 10 2 C8.35 3.32 6.7 4.64 5 6 C4.67 4.35 4.34 2.7 4 1 C2.68 0.67 1.36 0.34 0 0 Z " fill="#E3E7EE" transform="translate(251,150)"/>
<path d="M0 0 C2.64752004 2.57784846 4.94432065 4.91648098 7 8 C5.35 8.33 3.7 8.66 2 9 C2.33 8.01 2.66 7.02 3 6 C2.34 6 1.68 6 1 6 C0.67 4.02 0.34 2.04 0 0 Z " fill="#262E5B" transform="translate(170,190)"/>
<path d="M0 0 C4.875 4.75 4.875 4.75 6 7 C3.03 6.505 3.03 6.505 0 6 C-1 3 -1 3 0 0 Z " fill="#28315E" transform="translate(130,138)"/>
<path d="M0 0 C6.625 0.625 6.625 0.625 10 4 C7.03 3.67 4.06 3.34 1 3 C0.67 2.01 0.34 1.02 0 0 Z " fill="#575A74" transform="translate(254,268)"/>
<path d="M0 0 C0.66 0.99 1.32 1.98 2 3 C1.01 3 0.02 3 -1 3 C-1 3.66 -1 4.32 -1 5 C-0.34 5.33 0.32 5.66 1 6 C-0.98 6.33 -2.96 6.66 -5 7 C-4.60196439 4.11424181 -4.20990931 3.17810487 -1.9375 1.25 C-1.298125 0.8375 -0.65875 0.425 0 0 Z " fill="#252C58" transform="translate(311,362)"/>
<path d="M0 0 C0.66 0.33 1.32 0.66 2 1 C2 2.32 2 3.64 2 5 C0.35 5 -1.3 5 -3 5 C-2.625 3.0625 -2.625 3.0625 -2 1 C-1.34 0.67 -0.68 0.34 0 0 Z " fill="#282A59" transform="translate(106,281)"/>
<path d="M0 0 C0.33 0 0.66 0 1 0 C1 3.96 1 7.92 1 12 C-0.65261288 8.69477423 -1.63201647 6.58783942 -2 3 C-1.34 2.01 -0.68 1.02 0 0 Z " fill="#272A49" transform="translate(220,136)"/>
<path d="M0 0 C0.66 0 1.32 0 2 0 C2 0.66 2 1.32 2 2 C4.97 2.495 4.97 2.495 8 3 C5.8614515 5.1385485 4.86724686 5.42655063 2 6 C1.67 5.01 1.34 4.02 1 3 C0.34 2.34 -0.32 1.68 -1 1 C-0.67 0.67 -0.34 0.34 0 0 Z " fill="#B1B5C6" transform="translate(250,198)"/>
<path d="M0 0 C0.33 0 0.66 0 1 0 C1.33 2.97 1.66 5.94 2 9 C0.35 7.35 -1.3 5.7 -3 4 C-2.02727325 2.64664105 -1.0260734 1.31337396 0 0 Z " fill="#2A2B64" transform="translate(218,275)"/>
<path d="M0 0 C1.65 1.65 3.3 3.3 5 5 C4.01 5.495 4.01 5.495 3 6 C2.67 6.66 2.34 7.32 2 8 C-0.1519437 4.77208445 -0.20086443 3.71599191 0 0 Z " fill="#2D3668" transform="translate(196,223)"/>
<path d="M0 0 C2.97 0.495 2.97 0.495 6 1 C5.67 2.65 5.34 4.3 5 6 C3.31237149 4.3545622 1.6459651 2.68711423 0 1 C0 0.67 0 0.34 0 0 Z " fill="#292E60" transform="translate(160,206)"/>
<path d="M0 0 C2.97 0.495 2.97 0.495 6 1 C5.01 1.495 5.01 1.495 4 2 C4 2.66 4 3.32 4 4 C1.03 3.505 1.03 3.505 -2 3 C-1.34 2.67 -0.68 2.34 0 2 C0 1.34 0 0.68 0 0 Z " fill="#303567" transform="translate(352,211)"/>
<path d="M0 0 C-0.33 0.66 -0.66 1.32 -1 2 C-3.97 2 -6.94 2 -10 2 C-9 0 -9 0 -7.25 -0.6875 C-4.60760177 -1.05449975 -2.57327078 -0.64331769 0 0 Z " fill="#C0C3DB" transform="translate(257,162)"/>
</svg>
